<?xml version="1.0" encoding="utf-8"?>
<!-- Generator: Adobe Illustrator 16.0.0, SVG Export Plug-In . SVG Version: 6.00 Build 0)  -->
<!DOCTYPE svg PUBLIC "-//W3C//DTD SVG 1.1//EN" "http://www.w3.org/Graphics/SVG/1.1/DTD/svg11.dtd">
<svg version="1.1" id="Layer_1" xmlns="http://www.w3.org/2000/svg" xmlns:xlink="http://www.w3.org/1999/xlink" x="0px" y="0px"
	 width="30px" height="30px" viewBox="0 0 30 30" enable-background="new 0 0 30 30" xml:space="preserve">
<polygon fill="#C52026" points="4.084,13.086 16.81,0.259 22.053,5.4 20.677,6.876 16.81,3.313 7.037,13.086 16.555,22.654 
	26.227,12.832 22.562,9.014 23.885,7.437 29.484,12.781 16.555,25.861 "/>
<polygon fill="#C52026" points="9.708,13.061 14.214,8.556 14.214,11.253 11.074,14.46 "/>
<path fill="#C52026" d="M12.013,15.834c0,0,2.793-2.768,3.283-3.257c4.962-0.357,4.53,4.491,4.53,4.491l-3.207,3.36l-1.416-1.663
	l2.37-2.319c0,0,0.891-2.329-1.591-1.629c-0.49,0.49-2.507,2.43-2.507,2.43L12.013,15.834z"/>
<polygon fill="#C52026" points="15.445,10.063 15.445,7.36 16.784,5.973 23.885,13.061 22.562,14.46 16.857,8.728 16.438,8.871 "/>
<polygon fill="#C52026" points="25.075,6.214 26.659,4.605 25.075,2.906 23.489,4.561 "/>
<text transform="matrix(0.7071 0.7071 -0.7071 0.7071 0.7666 16.5527)" fill="#C52026" font-family="'Lato-Bold'" font-size="3.6648">THE FARM</text>
</svg>
