<?xml version="1.0" encoding="utf-8"?>
<!-- Generator: Adobe Illustrator 16.0.0, SVG Export Plug-In . SVG Version: 6.00 Build 0)  -->
<!DOCTYPE svg PUBLIC "-//W3C//DTD SVG 1.1//EN" "http://www.w3.org/Graphics/SVG/1.1/DTD/svg11.dtd">
<svg version="1.1" id="Layer_1" xmlns="http://www.w3.org/2000/svg" xmlns:xlink="http://www.w3.org/1999/xlink" x="0px" y="0px"
	 width="649px" height="182.208px" viewBox="0 0 649 182.208" enable-background="new 0 0 649 182.208" xml:space="preserve">
<polygon fill="#C52026" points="649,73.202 632.736,56.381 543.886,56.381 527.629,73.202 527.629,101.667 560.187,101.667 
	560.187,86.154 613.702,86.154 613.702,107.213 591.318,107.213 591.318,131.127 613.702,131.127 613.702,152.32 560.187,152.32 
	560.187,136.792 527.629,136.792 527.629,152.32 544.105,181.978 632.736,181.978 649,165.157 649,131.127 638.681,119.208 
	649,107.213 "/>
<path fill="#FFFFFF" d="M273.34,56.207h33.776c0.662,0.704,7.626,14.44,20.897,41.211c26.811,53.943,40.777,82.127,41.898,84.56
	v0.229h-39.025c-0.727-0.783-5.019-9.235-12.875-25.363h-55.369c-7.461,15.424-11.654,23.876-12.583,25.363h-39.224v-0.586
	C250.989,100.75,271.818,58.947,273.34,56.207z M290.263,98.149l-16.181,32.368h32.492
	C296.287,109.645,290.855,98.844,290.263,98.149z"/>
<path fill="#FFFFFF" d="M490.435,146.963l16.258-16.823v-28.474V73.202l-17.385-16.821L379.67,56.207
	c-0.267,0-0.433,0.19-0.496,0.586v124.829c0,0.389,0.165,0.586,0.496,0.586h38.449c0.331,0,0.497-0.197,0.497-0.586v-34.057h30.892
	c11.322,20.254,18.858,33.369,19.809,34.643h40.217l0.497-0.229L490.435,146.963z M454.992,117.19h-36.376V86.154h20.15h16.226
	l2.735,0.024c8.551,0,12.743,6.94,12.743,15.508C470.471,110.248,463.543,117.19,454.992,117.19z"/>
<g>
	<path fill="#FFFFFF" d="M278.211,0.029h24.034c3.621,0,6.564,1.662,8.839,4.977c1.063,1.763,1.592,3.617,1.592,5.584v17.334
		c0,3.896-1.837,6.938-5.517,9.196c-1.549,0.851-3.183,1.282-4.914,1.282h-23.729c-3.52,0-6.446-1.705-8.78-5.078
		c-1.004-1.696-1.506-3.457-1.506-5.292V10.507c0-4.078,2.03-7.235,6.089-9.509C275.931,0.361,277.223,0.029,278.211,0.029z
		 M278.569,15.403v7.559c0,3.093,1.362,5.145,4.075,6.186c0.379,0.118,0.78,0.174,1.207,0.174h13.267
		c2.372,0,4.033-1.496,4.978-4.465c0.139-0.438,0.208-1.009,0.208-1.72v-7.302c0-3.267-1.271-5.442-3.829-6.533
		c-0.748-0.091-1.399-0.15-1.96-0.15h-12.663c-2.436,0-4.123,1.474-5.063,4.433C278.639,14.178,278.569,14.798,278.569,15.403z"/>
	<path fill="#FFFFFF" d="M378.597,0.029h10.041c0.102,0.04,0.149,0.091,0.149,0.182v29.109h15.745c0.106,0,0.154,0.051,0.154,0.142
		v8.765c0,0.115-0.048,0.174-0.154,0.174h-25.936c-0.102,0-0.149-0.059-0.149-0.174V0.211
		C378.469,0.094,378.517,0.029,378.597,0.029z"/>
	<path fill="#FFFFFF" d="M418.461,0.029h34.075c3.081,0,5.784,1.423,8.112,4.217c1.41,1.953,2.109,4.019,2.109,6.261v17.591
		c0,3.267-1.495,6.076-4.486,8.401c-1.954,1.266-3.813,1.902-5.581,1.902h-34.229c-0.106,0-0.154-0.059-0.154-0.174V0.211
		C418.333,0.094,418.381,0.029,418.461,0.029z M428.651,9.15v20.17h18.544c2.339,0,3.994-1.463,4.982-4.398
		c0.139-0.597,0.209-1.199,0.209-1.787v-7.732c0-2.796-1.181-4.778-3.531-5.913c-0.502-0.23-1.084-0.34-1.746-0.34H428.651z"/>
	<path fill="#FFFFFF" d="M251.122,0.021c-0.139,0.214-4.219,8.401-12.241,24.569h-0.064c-1.084-2.199-2.029-4.118-2.911-5.854
		c-3.45-6.957-5.266-10.595-5.416-10.809c-0.214-0.439-0.406-0.835-0.598-1.258c-1.923-3.986-3.05-6.218-3.386-6.648h-11.883
		c0.117,0.455,0.224,0.677,0.299,0.677c2.516,5.11,4.689,9.496,6.692,13.546c-1.041,2.116-4.155,8.369-5.143,10.346h-0.059
		c-5.368-10.833-8.145-16.398-8.327-16.663c-2.291-4.797-3.616-7.419-3.979-7.906h-11.889c0.123,0.455,0.219,0.677,0.305,0.677
		c11.985,24.272,18.233,36.842,18.73,37.704h10.351c0.881-1.721,4.347-8.666,6.024-12.024c0.817,1.653,1.597,3.224,2.249,4.532
		c2.302,4.613,3.562,7.12,3.781,7.492h10.351c1.869-3.655,5.175-10.295,9.923-19.922c6.094-12.067,9.138-18.229,9.138-18.458
		H251.122z"/>
	<path fill="#FFFFFF" d="M358.687,27.66l4.956-5.126v-8.679V5.18l-5.299-5.126L327.664,0c-0.083,0-0.131,0.059-0.152,0.179v38.043
		c0,0.118,0.051,0.179,0.152,0.179h8.982c0.102,0,0.152-0.062,0.152-0.179V27.841h10.292c3.45,6.175,5.747,10.172,6.035,10.561
		h11.382l0.149-0.072L358.687,27.66z M350.619,18.587h-13.82V9.129h8.877h2.208l2.735,0.005c2.604,0,4.718,2.116,4.718,4.725
		C355.337,16.471,353.225,18.587,350.619,18.587z"/>
</g>
<path fill="#FFFFFF" d="M79.638,136.882H79.44C61.81,101.263,52.693,83.019,52.1,82.157C44.575,66.42,40.217,57.77,39.026,56.207H0
	c0.395,1.488,0.727,2.234,0.988,2.234c39.356,79.687,59.86,120.947,61.511,123.766h33.979c2.996-5.846,7.135-14.075,12.38-24.593
	c-5.047-10.132-11.643-23.43-19.75-39.804C86.159,123.748,83.008,130.083,79.638,136.882z"/>
<path fill="#FFFFFF" d="M158.924,136.882h-0.198c-17.63-35.619-26.747-53.864-27.34-54.725
	c-7.525-15.737-11.883-24.388-13.074-25.95H79.287c0.395,1.488,0.726,2.234,0.988,2.234
	c39.357,79.687,59.861,120.947,61.511,123.766h33.979c2.996-5.846,7.135-14.075,12.38-24.593
	c-5.047-10.132-11.643-23.43-19.75-39.804C165.445,123.748,162.294,130.083,158.924,136.882z"/>
<path fill="#FFFFFF" d="M217.875,96.33c-4.504-9.014-6.907-13.745-7.202-14.172c-7.525-15.737-11.883-24.388-13.075-25.95h-39.025
	c0.395,1.488,0.726,2.234,0.988,2.234c15.98,32.355,28.852,58.375,38.616,78.058L217.875,96.33z"/>
</svg>
