<?xml version="1.0" encoding="utf-8"?>
<!-- Generator: Adobe Illustrator 16.0.0, SVG Export Plug-In . SVG Version: 6.00 Build 0)  -->
<!DOCTYPE svg PUBLIC "-//W3C//DTD SVG 1.1//EN" "http://www.w3.org/Graphics/SVG/1.1/DTD/svg11.dtd">
<svg version="1.1" id="Layer_1" xmlns="http://www.w3.org/2000/svg" xmlns:xlink="http://www.w3.org/1999/xlink" x="0px" y="0px"
	 width="30px" height="30px" viewBox="0 0 30 30" enable-background="new 0 0 30 30" xml:space="preserve">
<path fill="#C52026" d="M10.943,17.708h-0.027c-2.417-4.875-3.667-7.372-3.749-7.49C6.135,8.064,5.538,6.88,5.374,6.667H0.023
	C0.077,6.87,0.122,6.972,0.158,6.972c5.397,10.907,8.208,16.554,8.435,16.94h4.659c0.411-0.8,0.979-1.927,1.698-3.366
	c-0.692-1.387-1.597-3.207-2.708-5.448C11.837,15.911,11.405,16.777,10.943,17.708z"/>
<path fill="#C52026" d="M21.816,17.708h-0.027c-2.418-4.875-3.668-7.372-3.749-7.49c-1.032-2.154-1.63-3.338-1.793-3.552h-5.352
	c0.054,0.204,0.1,0.306,0.135,0.306c5.397,10.907,8.208,16.554,8.435,16.94h4.659c0.411-0.8,0.979-1.927,1.698-3.366
	c-0.692-1.387-1.597-3.207-2.708-5.448C22.711,15.911,22.278,16.777,21.816,17.708z"/>
<path fill="#C52026" d="M29.899,12.158c-0.617-1.233-0.947-1.881-0.987-1.939c-1.032-2.154-1.629-3.338-1.793-3.552h-5.352
	c0.055,0.204,0.1,0.306,0.136,0.306c2.191,4.429,3.956,7.99,5.295,10.684L29.899,12.158z"/>
</svg>
